# xmcd
# 
# Track frame offsets:
#     150
#     33014
#     54152
#     76601
#     95702
#     126779
#     144381
#     160464
#     183599
#     206351
#     231043
# 
# Disc length: 3278
# 
# Revision: 0
# Processed by: cddbd v1.5.2PL0 Copyright (c) Steve Scherf et al.
# Submitted via: BonkEnc v1.0.8
# 
DISCID=840ccc0b
DTITLE=Chris Rea - Auberge
DYEAR=1991
DGENRE=Blues
TTITLE0=Auberge
TTITLE1=Gone Fishing
TTITLE2=You're Not A Number
TTITLE3=Heaven
TTITLE4=Set Me Free
TTITLE5=Red Shoes
TTITLE6=Sing A Song Of Love To Me
TTITLE7=Every Second 
TTITLE8=Looking For The Summer
TTITLE9=And You My Love
TTITLE10=The Mention Of Your Name
EXTD=
EXTT0=
EXTT1=
EXTT2=
EXTT3=
EXTT4=
EXTT5=
EXTT6=
EXTT7=
EXTT8=
EXTT9=
EXTT10=
PLAYORDER=
